<svg width="86" height="63" viewBox="0 0 86 63" fill="none" xmlns="http://www.w3.org/2000/svg">
<path d="M2.50049 11.71C2.55399 12.0985 2.87665 13.7147 3.1618 15.757C3.29449 16.7072 3.32374 17.7319 3.46561 19.5059C3.71369 22.6079 3.55397 25.4168 3.60117 26.8811C3.52576 28.3956 3.47051 29.5662 3.49058 30.7273C3.51064 31.1795 3.55077 31.3534 3.71372 31.8967" stroke="#FF39AF" stroke-width="5" stroke-linecap="round"/>
<path d="M56.8053 2.50049C56.696 2.68776 55.932 3.87054 53.7002 6.43045C52.79 7.47449 52.3125 8.24001 51.8045 9.03752C50.4902 11.1009 48.905 14.6702 47.9862 16.3966C47.1131 18.037 46.4158 19.1347 45.7948 20.1274C44.3119 22.498 43.2289 24.8079 42.6801 25.894C41.9583 27.3224 41.0881 29.5143 39.7529 32.1582C39.2053 33.2427 38.6108 34.1612 38.0873 34.9135C37.6362 35.5619 37.0167 36.2836 35.2544 38.8036C34.8306 39.4185 34.5856 39.7662 34.405 40.0457C34.2244 40.3252 34.1156 40.5259 34.0034 40.7326" stroke="#FF39AF" stroke-width="5" stroke-linecap="round"/>
<path d="M64.5024 59.8366C66.1165 59.3693 70.142 58.2574 71.1681 57.8655C72.2156 57.4653 73.3361 57.1161 75.2898 56.9713C76.5358 56.879 77.5871 56.1966 79.4189 55.4276C80.9712 54.7245 81.6724 54.2586 82.4087 53.6061C82.6586 53.4063 82.993 53.175 83.4591 52.8535" stroke="#FF39AF" stroke-width="5" stroke-linecap="round"/>
</svg>
